<svg width="53" height="53" viewBox="0 0 53 53" fill="none" xmlns="http://www.w3.org/2000/svg">
<rect x="0.5" y="0.5" width="52" height="52" fill="#F9F9F9" stroke="#F2F2F2"/>
<path fill-rule="evenodd" clip-rule="evenodd" d="M18 26.5C18 26.2239 18.2239 26 18.5 26L34.5 26C34.7761 26 35 26.2239 35 26.5C35 26.7761 34.7761 27 34.5 27L18.5 27C18.2239 27 18 26.7761 18 26.5Z" fill="#333333"/>
<path fill-rule="evenodd" clip-rule="evenodd" d="M30.6464 22.6464C30.8417 22.4512 31.1583 22.4512 31.3536 22.6464L35.2071 26.5L31.3536 30.3536C31.1583 30.5488 30.8417 30.5488 30.6464 30.3536C30.4512 30.1583 30.4512 29.8417 30.6464 29.6464L33.7929 26.5L30.6464 23.3536C30.4512 23.1583 30.4512 22.8417 30.6464 22.6464Z" fill="#333333"/>
</svg>
