<svg width="17" height="16" viewBox="0 0 17 16" fill="none" xmlns="http://www.w3.org/2000/svg">
<mask id="path-1-inside-1_1_209" fill="white">
<path d="M16.0028 12.6271C16.0367 12.887 15.9575 13.113 15.7655 13.3051L13.5113 15.5423C13.4096 15.6553 13.2768 15.7514 13.113 15.8304C12.9492 15.9095 12.7882 15.9604 12.63 15.9829C12.6187 15.9829 12.5848 15.9858 12.5282 15.9915C12.4718 15.9971 12.3984 16 12.308 16C12.0932 16 11.7457 15.9633 11.2655 15.8898C10.7853 15.8163 10.1978 15.6355 9.5029 15.3474C8.80787 15.0593 8.01976 14.627 7.13844 14.0508C6.25711 13.4746 5.31923 12.6836 4.32488 11.6779C3.53392 10.8983 2.87856 10.1525 2.35878 9.4407C1.83901 8.72881 1.42093 8.07061 1.10455 7.4661C0.788135 6.86158 0.550847 6.31356 0.392655 5.82203C0.234463 5.33051 0.127118 4.90678 0.0706214 4.55085C0.0141243 4.19492 -0.00847457 3.91526 0.00282486 3.71187C0.0141243 3.50848 0.019774 3.39549 0.019774 3.37289C0.0423728 3.2147 0.0932202 3.05368 0.172316 2.88984C0.251412 2.726 0.347457 2.59323 0.460451 2.49153L2.71469 0.237303C2.87288 0.0791111 3.05367 1.52588e-05 3.25706 1.52588e-05C3.40395 1.52588e-05 3.53389 0.042388 3.64689 0.127134C3.75988 0.211879 3.85593 0.316399 3.93502 0.440692L5.74858 3.88136C5.85028 4.06215 5.87852 4.25989 5.83333 4.47458C5.78813 4.68927 5.69208 4.87006 5.54519 5.01695L4.71468 5.84746C4.69208 5.87006 4.67231 5.90678 4.65536 5.95763C4.63841 6.00847 4.62994 6.05085 4.62994 6.08474C4.67514 6.32203 4.77683 6.59322 4.93502 6.8983C5.07062 7.16949 5.27965 7.5 5.56214 7.88982C5.84463 8.27965 6.24575 8.72878 6.76553 9.23725C7.274 9.75708 7.72598 10.161 8.12146 10.4492C8.51686 10.7372 8.84748 10.9491 9.11301 11.0847C9.37855 11.2203 9.58194 11.3022 9.72315 11.3304L9.93496 11.3728C9.95756 11.3728 9.99437 11.3643 10.0452 11.3474C10.096 11.3304 10.1327 11.3107 10.1554 11.288L11.1214 10.305C11.3249 10.1242 11.5621 10.0338 11.8333 10.0338C12.0255 10.0338 12.1779 10.0677 12.2909 10.1355H12.3078L15.579 12.0677C15.8164 12.2147 15.9576 12.4011 16.0028 12.6271Z"/>
</mask>
<path d="M16.0028 12.6271C16.0367 12.887 15.9575 13.113 15.7655 13.3051L13.5113 15.5423C13.4096 15.6553 13.2768 15.7514 13.113 15.8304C12.9492 15.9095 12.7882 15.9604 12.63 15.9829C12.6187 15.9829 12.5848 15.9858 12.5282 15.9915C12.4718 15.9971 12.3984 16 12.308 16C12.0932 16 11.7457 15.9633 11.2655 15.8898C10.7853 15.8163 10.1978 15.6355 9.5029 15.3474C8.80787 15.0593 8.01976 14.627 7.13844 14.0508C6.25711 13.4746 5.31923 12.6836 4.32488 11.6779C3.53392 10.8983 2.87856 10.1525 2.35878 9.4407C1.83901 8.72881 1.42093 8.07061 1.10455 7.4661C0.788135 6.86158 0.550847 6.31356 0.392655 5.82203C0.234463 5.33051 0.127118 4.90678 0.0706214 4.55085C0.0141243 4.19492 -0.00847457 3.91526 0.00282486 3.71187C0.0141243 3.50848 0.019774 3.39549 0.019774 3.37289C0.0423728 3.2147 0.0932202 3.05368 0.172316 2.88984C0.251412 2.726 0.347457 2.59323 0.460451 2.49153L2.71469 0.237303C2.87288 0.0791111 3.05367 1.52588e-05 3.25706 1.52588e-05C3.40395 1.52588e-05 3.53389 0.042388 3.64689 0.127134C3.75988 0.211879 3.85593 0.316399 3.93502 0.440692L5.74858 3.88136C5.85028 4.06215 5.87852 4.25989 5.83333 4.47458C5.78813 4.68927 5.69208 4.87006 5.54519 5.01695L4.71468 5.84746C4.69208 5.87006 4.67231 5.90678 4.65536 5.95763C4.63841 6.00847 4.62994 6.05085 4.62994 6.08474C4.67514 6.32203 4.77683 6.59322 4.93502 6.8983C5.07062 7.16949 5.27965 7.5 5.56214 7.88982C5.84463 8.27965 6.24575 8.72878 6.76553 9.23725C7.274 9.75708 7.72598 10.161 8.12146 10.4492C8.51686 10.7372 8.84748 10.9491 9.11301 11.0847C9.37855 11.2203 9.58194 11.3022 9.72315 11.3304L9.93496 11.3728C9.95756 11.3728 9.99437 11.3643 10.0452 11.3474C10.096 11.3304 10.1327 11.3107 10.1554 11.288L11.1214 10.305C11.3249 10.1242 11.5621 10.0338 11.8333 10.0338C12.0255 10.0338 12.1779 10.0677 12.2909 10.1355H12.3078L15.579 12.0677C15.8164 12.2147 15.9576 12.4011 16.0028 12.6271Z" fill="white"/>
<path d="M16.0028 12.6271L16.9944 12.4977L16.99 12.4641L16.9834 12.4309L16.0028 12.6271ZM15.7655 13.3051L16.4699 14.0149L16.4727 14.0121L15.7655 13.3051ZM13.5113 15.5423L12.8069 14.8325L12.7869 14.8523L12.768 14.8733L13.5113 15.5423ZM13.113 15.8304L12.6786 14.9297L12.6781 14.9299L13.113 15.8304ZM12.63 15.9829V16.9829H12.701L12.7713 16.9729L12.63 15.9829ZM12.5282 15.9915L12.6274 16.9866L12.6277 16.9865L12.5282 15.9915ZM9.5029 15.3474L9.88587 14.4237L9.88586 14.4237L9.5029 15.3474ZM7.13844 14.0508L7.68566 13.2138L7.68564 13.2138L7.13844 14.0508ZM4.32488 11.6779L5.03604 10.9748L5.02688 10.9658L4.32488 11.6779ZM2.35878 9.4407L1.55115 10.0304L1.55117 10.0304L2.35878 9.4407ZM1.10455 7.4661L1.99054 7.0024L1.99052 7.00237L1.10455 7.4661ZM0.019774 3.37289L-0.970176 3.23147L-0.980226 3.30182V3.37289H0.019774ZM0.460451 2.49153L1.12942 3.23483L1.14896 3.21724L1.16756 3.19864L0.460451 2.49153ZM2.71469 0.237303L3.42179 0.94441V0.94441L2.71469 0.237303ZM3.93502 0.440692L4.81966 -0.0255937L4.80061 -0.0617256L4.77868 -0.096184L3.93502 0.440692ZM5.74858 3.88136L4.86395 4.34765L4.87031 4.35972L4.87701 4.37162L5.74858 3.88136ZM5.54519 5.01695L4.83808 4.30984L4.83808 4.30984L5.54519 5.01695ZM4.71468 5.84746L5.42179 6.55456L5.42179 6.55456L4.71468 5.84746ZM4.62994 6.08474H3.62994V6.17913L3.6476 6.27186L4.62994 6.08474ZM4.93502 6.8983L5.82945 6.45109L5.82616 6.44451L5.82278 6.43798L4.93502 6.8983ZM6.76553 9.23725L7.4804 8.53799L7.4727 8.53012L7.46482 8.52242L6.76553 9.23725ZM8.12146 10.4492L7.53253 11.2573L7.53267 11.2575L8.12146 10.4492ZM9.72315 11.3304L9.91944 10.3499L9.91875 10.3497L9.72315 11.3304ZM9.93496 11.3728L9.73867 12.3534L9.83585 12.3728H9.93496V11.3728ZM10.0452 11.3474L10.3612 12.2961L10.3618 12.2959L10.0452 11.3474ZM10.1554 11.288L10.8625 11.9952L10.8686 11.989L10.1554 11.288ZM11.1214 10.305L10.4573 9.55735L10.432 9.57987L10.4082 9.60407L11.1214 10.305ZM12.2909 10.1355L11.7763 10.9929L12.0138 11.1355H12.2909V10.1355ZM12.3078 10.1355L12.8164 9.27451L12.5811 9.13553H12.3078V10.1355ZM15.579 12.0677L16.1055 11.2176L16.0966 11.212L16.0876 11.2067L15.579 12.0677ZM15.0112 12.7565C15.0099 12.7464 15.0083 12.709 15.0251 12.6611C15.0414 12.6144 15.0626 12.5938 15.0583 12.5981L16.4727 14.0121C16.8746 13.6101 17.0702 13.0786 16.9944 12.4977L15.0112 12.7565ZM15.0611 12.5953L12.8069 14.8325L14.2157 16.252L16.4699 14.0148L15.0611 12.5953ZM12.768 14.8733C12.7678 14.8735 12.7627 14.8792 12.7492 14.8889C12.7355 14.8989 12.713 14.9131 12.6786 14.9297L13.5474 16.7311C13.8062 16.6063 14.051 16.4375 14.2546 16.2112L12.768 14.8733ZM12.6781 14.9299C12.5943 14.9704 12.532 14.9868 12.4887 14.993L12.7713 16.9729C13.0444 16.9339 13.304 16.8487 13.5479 16.7309L12.6781 14.9299ZM12.63 14.9829C12.5554 14.9829 12.4569 14.9936 12.4288 14.9965L12.6277 16.9865C12.6405 16.9853 12.6513 16.9842 12.6603 16.9834C12.6695 16.9825 12.6759 16.9819 12.6802 16.9816C12.6823 16.9814 12.6834 16.9813 12.6838 16.9813C12.6842 16.9812 12.6832 16.9813 12.681 16.9815C12.679 16.9816 12.6742 16.9819 12.6674 16.9822C12.6639 16.9823 12.6591 16.9825 12.6533 16.9826C12.6477 16.9828 12.6397 16.9829 12.63 16.9829V14.9829ZM12.4291 14.9964C12.4185 14.9975 12.3814 15 12.308 15V17C12.4153 17 12.5251 16.9968 12.6274 16.9866L12.4291 14.9964ZM12.308 15C12.1756 15 11.8933 14.9742 11.4168 14.9013L11.1143 16.8783C11.5982 16.9523 12.0109 17 12.308 17V15ZM11.4168 14.9013C11.047 14.8447 10.5422 14.6958 9.88587 14.4237L9.11992 16.2712C9.85327 16.5752 10.5236 16.7879 11.1143 16.8783L11.4168 14.9013ZM9.88586 14.4237C9.26584 14.1666 8.53398 13.7685 7.68566 13.2138L6.59121 14.8878C7.50555 15.4856 8.34991 15.952 9.11993 16.2712L9.88586 14.4237ZM7.68564 13.2138C6.87975 12.687 5.99637 11.9462 5.03598 10.9749L3.61378 12.381C4.64209 13.4211 5.63447 14.2623 6.59123 14.8878L7.68564 13.2138ZM5.02688 10.9658C4.26498 10.2148 3.64739 9.50971 3.1664 8.85098L1.55117 10.0304C2.10972 10.7953 2.80287 11.5818 3.62288 12.3901L5.02688 10.9658ZM3.16642 8.85102C2.6679 8.16823 2.27846 7.55253 1.99054 7.0024L0.218553 7.92979C0.563401 8.5887 1.01012 9.28938 1.55115 10.0304L3.16642 8.85102ZM1.99052 7.00237C1.69268 6.43332 1.48079 5.93891 1.34457 5.51567L-0.55926 6.1284C-0.379092 6.6882 -0.116406 7.28984 0.21857 7.92983L1.99052 7.00237ZM1.34457 5.51567C1.19599 5.054 1.10408 4.6828 1.05826 4.39408L-0.917014 4.70762C-0.849848 5.13077 -0.72706 5.60702 -0.55926 6.1284L1.34457 5.51567ZM1.05826 4.39408C1.00579 4.06356 0.995827 3.86559 1.00129 3.76734L-0.995636 3.6564C-1.01278 3.96493 -0.977545 4.32627 -0.917014 4.70762L1.05826 4.39408ZM1.00129 3.76734C1.01131 3.58689 1.01977 3.43176 1.01977 3.37289H-0.980226C-0.980226 3.35424 -0.979567 3.34472 -0.980418 3.36515C-0.980959 3.37812 -0.981864 3.39761 -0.983216 3.42464C-0.985903 3.47839 -0.990021 3.55534 -0.995636 3.6564L1.00129 3.76734ZM1.00972 3.51431C1.01593 3.4709 1.03239 3.40844 1.07287 3.32459L-0.728235 2.45509C-0.845947 2.69892 -0.931179 2.95849 -0.970176 3.23147L1.00972 3.51431ZM1.07287 3.32459C1.08958 3.28997 1.10391 3.2673 1.1139 3.2535C1.12371 3.23994 1.12932 3.23491 1.12942 3.23483L-0.208513 1.74824C-0.434986 1.95206 -0.60357 2.19685 -0.728235 2.45509L1.07287 3.32459ZM1.16756 3.19864L3.42179 0.94441L2.00758 -0.469805L-0.246655 1.78443L1.16756 3.19864ZM3.42179 0.94441C3.42442 0.941787 3.40782 0.958837 3.36974 0.975495C3.32983 0.992956 3.28899 1.00002 3.25706 1.00002V-0.999985C2.76068 -0.999985 2.33272 -0.79494 2.00758 -0.469805L3.42179 0.94441ZM3.25706 1.00002C3.23308 1.00002 3.19701 0.996333 3.15466 0.982525C3.1119 0.968579 3.07517 0.948342 3.04689 0.927134L4.24689 -0.672867C3.95352 -0.892892 3.61104 -0.999985 3.25706 -0.999985V1.00002ZM3.04689 0.927134C3.05935 0.936478 3.07414 0.950508 3.09136 0.977568L4.77868 -0.096184C4.63771 -0.317711 4.46042 -0.51272 4.24689 -0.672867L3.04689 0.927134ZM3.05039 0.906978L4.86395 4.34765L6.63321 3.41507L4.81966 -0.0255937L3.05039 0.906978ZM4.87701 4.37162C4.86951 4.35829 4.86015 4.33512 4.85609 4.30668C4.85215 4.27913 4.85568 4.26426 4.85478 4.26857L6.81188 4.68059C6.90391 4.24343 6.84805 3.79624 6.62016 3.3911L4.87701 4.37162ZM4.85478 4.26857C4.85011 4.29071 4.84527 4.30016 4.84428 4.30203C4.84349 4.30352 4.84243 4.3055 4.83808 4.30984L6.2523 5.72406C6.54423 5.43213 6.72907 5.07391 6.81188 4.68059L4.85478 4.26857ZM4.83808 4.30984L4.00758 5.14035L5.42179 6.55456L6.2523 5.72406L4.83808 4.30984ZM4.00758 5.14035C3.82477 5.32316 3.74364 5.53051 3.70668 5.6414L5.60404 6.27385C5.5992 6.2884 5.58712 6.32195 5.56337 6.36605C5.54035 6.40882 5.49659 6.47977 5.42179 6.55456L4.00758 5.14035ZM3.70668 5.6414C3.67309 5.74216 3.62994 5.89959 3.62994 6.08474H5.62994C5.62994 6.1487 5.62222 6.19693 5.61687 6.22366C5.61132 6.25141 5.60571 6.26886 5.60404 6.27385L3.70668 5.6414ZM3.6476 6.27186C3.71679 6.6351 3.86166 7.00067 4.04727 7.35862L5.82278 6.43798C5.692 6.18577 5.63348 6.00896 5.61228 5.89763L3.6476 6.27186ZM4.0406 7.34552C4.21043 7.68518 4.45418 8.06507 4.75239 8.4766L6.37189 7.30305C6.10513 6.93492 5.9308 6.6538 5.82945 6.45109L4.0406 7.34552ZM4.75239 8.4766C5.08019 8.92896 5.52429 9.42192 6.06623 9.95209L7.46482 8.52242C6.96722 8.03563 6.60906 7.63034 6.37189 7.30305L4.75239 8.4766ZM6.05066 9.93651C6.58131 10.479 7.07624 10.9248 7.53253 11.2573L8.71039 9.64098C8.37572 9.39711 7.96669 9.03514 7.4804 8.53799L6.05066 9.93651ZM7.53267 11.2575C7.94725 11.5595 8.32587 11.8056 8.65823 11.9753L9.56779 10.1941C9.36908 10.0927 9.08646 9.91493 8.71025 9.64088L7.53267 11.2575ZM8.65823 11.9753C8.9376 12.118 9.24358 12.2545 9.52755 12.3111L9.91875 10.3497C9.93174 10.3523 9.90891 10.3487 9.83824 10.3202C9.77197 10.2936 9.68278 10.2528 9.56779 10.1941L8.65823 11.9753ZM9.52686 12.311L9.73867 12.3534L10.1313 10.3923L9.91944 10.3499L9.52686 12.311ZM9.93496 12.3728C10.136 12.3728 10.3103 12.3131 10.3612 12.2961L9.72908 10.3987C9.72232 10.4009 9.73241 10.3972 9.75461 10.3921C9.76628 10.3894 9.7864 10.3851 9.813 10.3813C9.83825 10.3777 9.88077 10.3728 9.93496 10.3728V12.3728ZM10.3618 12.2959C10.472 12.2591 10.6795 12.1781 10.8625 11.9951L9.44825 10.5809C9.5231 10.5061 9.5941 10.4623 9.63681 10.4393C9.68083 10.4156 9.71424 10.4036 9.72847 10.3989L10.3618 12.2959ZM10.8686 11.989L11.8347 11.0059L10.4082 9.60407L9.44212 10.5871L10.8686 11.989ZM11.7855 11.0526C11.7951 11.0441 11.8015 11.0399 11.8044 11.0381C11.8059 11.0371 11.8069 11.0366 11.8073 11.0364C11.8078 11.0362 11.808 11.0361 11.808 11.0361C11.808 11.0361 11.8081 11.0361 11.8085 11.036C11.8089 11.0359 11.8098 11.0356 11.8113 11.0353C11.8143 11.0348 11.8213 11.0338 11.8333 11.0338V9.03383C11.3161 9.03383 10.8429 9.21481 10.4573 9.55735L11.7855 11.0526ZM11.8333 11.0338C11.8724 11.0338 11.8839 11.0374 11.8749 11.0354C11.8651 11.0333 11.8273 11.0235 11.7763 10.9929L12.8056 9.27812C12.4816 9.08367 12.1287 9.03383 11.8333 9.03383V11.0338ZM12.2909 11.1355H12.3078V9.13553H12.2909V11.1355ZM11.7993 10.9965L15.0704 12.9287L16.0876 11.2067L12.8164 9.27451L11.7993 10.9965ZM15.0525 12.9179C15.0864 12.9389 15.0824 12.9435 15.0659 12.9217C15.0576 12.9108 15.0482 12.8957 15.0397 12.877C15.0312 12.8582 15.0255 12.8398 15.0222 12.8233L16.9834 12.4309C16.8726 11.8772 16.5245 11.4771 16.1055 11.2176L15.0525 12.9179Z" fill="white" mask="url(#path-1-inside-1_1_209)"/>
</svg>
