<svg width="69" height="42" viewBox="0 0 69 42" fill="none" xmlns="http://www.w3.org/2000/svg">
<g clip-path="url(#clip0_1_217)">
<path d="M44.6348 21.1039L45.9133 24.0542C46.1496 24.598 46.8002 24.8552 47.3678 24.6293C47.9364 24.4057 48.206 23.783 47.9704 23.2389L46.6922 20.2896L44.6348 21.1039Z" fill="#333333"/>
<path d="M45.4877 23.0706L47.5447 22.2561L45.4877 23.0706Z" fill="#333333"/>
<path d="M41.9372 14.877L44.8465 16.0287L41.9372 14.877Z" fill="#333333"/>
<path d="M43.5203 8.89657C43.5203 10.4644 42.1915 11.735 40.5531 11.735C38.9129 11.735 37.5838 10.4644 37.5838 8.89657C37.5838 7.32909 38.9129 6.05908 40.5531 6.05908C42.1912 6.05908 43.5203 7.32909 43.5203 8.89657Z" fill="#333333"/>
<path d="M42.0359 8.89649C42.0359 9.68086 41.3719 10.3163 40.5527 10.3163C39.7325 10.3163 39.067 9.68086 39.067 8.89649C39.067 8.11278 39.7325 7.4773 40.5527 7.4773C41.3719 7.47694 42.0359 8.11278 42.0359 8.89649Z" fill="#333333"/>
<path d="M38.4707 10.9197L34.41 20.29L33.3921 24.495L34.0777 24.7665L36.4677 21.1044L37.0363 19.7938C36.5926 18.7692 37.1009 17.5944 38.1724 17.1708L40.5271 11.7341C39.7262 11.7277 39.0016 11.4184 38.4707 10.9197Z" fill="#333333"/>
<path d="M42.6331 10.9189C42.1018 11.4183 41.3766 11.7276 40.5757 11.7337L44.0686 19.7921L46.125 18.9781L42.6331 10.9189Z" fill="#333333"/>
<path d="M41.6653 4.63959V1.44617C41.6649 0.857652 41.165 0.381592 40.5521 0.381592C39.9372 0.381592 39.439 0.857008 39.4386 1.44617L39.439 4.63959H41.6653Z" fill="#333333"/>
<path d="M40.5527 6.05887C40.7424 6.05887 40.9284 6.07709 41.1083 6.10969V4.63965H39.9955V6.10969C40.1762 6.07676 40.3611 6.05887 40.5527 6.05887Z" fill="#333333"/>
<path d="M25.0957 25.9407H21.3929V0.380859H25.0963C25.9146 0.380859 26.5774 1.01699 26.5774 1.80136V24.5214H26.5771C26.5768 25.3058 25.9139 25.9407 25.0957 25.9407Z" fill="#333333"/>
<path d="M24.911 2.51126C25.2179 2.51126 25.4667 2.27281 25.4667 1.97865C25.4667 1.6845 25.2179 1.44604 24.911 1.44604C24.6042 1.44604 24.3555 1.6845 24.3555 1.97865C24.3555 2.27281 24.6042 2.51126 24.911 2.51126Z" fill="#333333"/>
<path d="M29.1694 15.4695C29.1694 15.7625 29.4184 16.0018 29.725 16.0018C30.032 16.0018 30.2806 15.7625 30.2806 15.4695C30.2806 15.7625 30.5299 16.0018 30.8362 16.0018C31.1431 16.0018 31.3917 15.7625 31.3917 15.4695C31.3917 15.7625 31.1431 16.0018 30.8362 16.0018C30.5299 16.0018 30.2806 15.7625 30.2806 15.4695C30.2806 15.7625 30.032 16.0018 29.725 16.0018C29.4184 16.0018 29.1694 15.7625 29.1694 15.4695Z" fill="#333333"/>
<path d="M29.9103 0.380859C29.5017 0.380859 29.1694 0.699402 29.1694 1.09175V1.09143V16.0016L30.2802 20.2615L31.3914 16.0016V1.09111V1.09143C31.3914 0.699722 31.0595 0.381179 30.6505 0.381179L29.9103 0.380859Z" fill="#333333"/>
</g>
<defs>
<clipPath id="clip0_1_217">
<rect width="68.5517" height="41.5272" fill="white" transform="translate(0.448242 0.142822)"/>
</clipPath>
</defs>
</svg>
