<svg width="20" height="20" viewBox="0 0 20 20" fill="none" xmlns="http://www.w3.org/2000/svg">
<g clip-path="url(#clip0_1_184)">
<path fill-rule="evenodd" clip-rule="evenodd" d="M18.512 19.013H1.48799C0.671986 19.013 0.0109863 18.434 0.0109863 17.72V2.282C0.0109863 1.569 0.671986 0.989998 1.48799 0.989998H18.512C19.327 0.989998 19.988 1.569 19.988 2.282V17.72C19.988 18.434 19.327 19.013 18.512 19.013ZM3.47299 16.044H6.41499V7.907H3.47299V16.044ZM4.96399 3.985C3.95699 3.985 3.29999 4.592 3.29999 5.391C3.29999 6.171 3.93799 6.797 4.92499 6.797H4.94399C5.96999 6.797 6.60799 6.171 6.60799 5.391C6.58999 4.592 5.96999 3.985 4.96399 3.985ZM17.023 11.379C17.023 8.879 15.571 7.716 13.636 7.716C12.074 7.716 11.376 8.505 10.985 9.06V7.907H8.04299C8.08199 8.671 8.04299 16.044 8.04299 16.044H10.985V11.5C10.985 11.258 11.004 11.014 11.082 10.841C11.294 10.355 11.779 9.852 12.591 9.852C13.656 9.852 14.081 10.598 14.081 11.692V16.044H17.023V11.379ZM10.965 9.087C10.971 9.078 10.979 9.069 10.985 9.06V9.087H10.965Z" fill="white"/>
</g>
<defs>
<clipPath id="clip0_1_184">
<rect width="20" height="20" fill="white"/>
</clipPath>
</defs>
</svg>
