<svg width="22" height="17" viewBox="0 0 22 17" fill="none" xmlns="http://www.w3.org/2000/svg">
<path fill-rule="evenodd" clip-rule="evenodd" d="M21.008 1.896C20.235 2.218 19.404 2.433 18.533 2.531C19.423 2.031 20.106 1.239 20.428 0.296999C19.594 0.758999 18.672 1.095 17.69 1.277C16.905 0.490999 15.784 0.000999451 14.545 0.000999451C12.165 0.000999451 10.234 1.81 10.234 4.04C10.234 4.357 10.272 4.666 10.346 4.961C6.764 4.792 3.588 3.184 1.462 0.740999C1.091 1.338 0.879 2.031 0.879 2.772C0.879 4.172 1.64 5.41 2.796 6.134C2.09 6.112 1.426 5.931 0.844 5.628C0.844 5.646 0.844 5.661 0.844 5.68C0.844 7.637 2.329 9.269 4.301 9.64C3.94 9.732 3.558 9.78 3.166 9.78C2.888 9.78 2.618 9.756 2.355 9.71C2.903 11.313 4.495 12.482 6.381 12.515C4.906 13.598 3.048 14.243 1.028 14.243C0.68 14.243 0.337 14.224 0 14.187C1.907 15.332 4.173 16.002 6.607 16.002C14.535 16.002 18.87 9.846 18.87 4.509C18.87 4.333 18.865 4.16 18.857 3.986C19.699 3.416 20.43 2.705 21.008 1.896Z" fill="white"/>
</svg>
